<svg width="468" height="157" viewBox="0 0 468 157" fill="none" xmlns="http://www.w3.org/2000/svg">
<path d="M149.859 113.922H162.907C162.646 118.199 161.467 121.995 159.373 125.312C157.307 128.629 154.412 131.218 150.688 133.08C146.993 134.942 142.542 135.873 137.334 135.873C133.261 135.873 129.61 135.175 126.381 133.778C123.151 132.352 120.387 130.316 118.089 127.668C115.82 125.021 114.089 121.821 112.896 118.068C111.703 114.315 111.107 110.111 111.107 105.456V101.048C111.107 96.393 111.718 92.189 112.939 88.436C114.19 84.6538 115.965 81.439 118.264 78.7915C120.591 76.144 123.369 74.1075 126.599 72.6819C129.828 71.2563 133.436 70.5435 137.422 70.5435C142.717 70.5435 147.182 71.5036 150.819 73.4238C154.485 75.3439 157.321 77.9914 159.329 81.3663C161.365 84.7411 162.587 88.5814 162.995 92.8873H149.903C149.757 90.327 149.248 88.1596 148.375 86.3849C147.502 84.5811 146.179 83.2283 144.404 82.3264C142.658 81.3954 140.331 80.9299 137.422 80.9299C135.24 80.9299 133.334 81.3372 131.705 82.1518C130.075 82.9664 128.708 84.2029 127.603 85.8612C126.497 87.5195 125.668 89.6143 125.115 92.1454C124.591 94.6474 124.33 97.5859 124.33 100.961V105.456C124.33 108.743 124.577 111.638 125.071 114.14C125.566 116.613 126.322 118.708 127.341 120.424C128.388 122.112 129.726 123.392 131.356 124.265C133.014 125.108 135.007 125.53 137.334 125.53C140.069 125.53 142.324 125.094 144.099 124.221C145.873 123.348 147.226 122.053 148.157 120.337C149.117 118.62 149.684 116.482 149.859 113.922ZM198.649 123.697V87.7814H211.217V135H199.391L198.649 123.697ZM200.045 114.009L203.755 113.922C203.755 117.064 203.391 119.988 202.664 122.693C201.936 125.37 200.845 127.698 199.391 129.676C197.936 131.625 196.103 133.153 193.892 134.258C191.681 135.335 189.077 135.873 186.08 135.873C183.782 135.873 181.658 135.553 179.709 134.913C177.789 134.244 176.13 133.211 174.734 131.814C173.366 130.389 172.29 128.57 171.505 126.359C170.748 124.119 170.37 121.428 170.37 118.286V87.7814H182.938V118.373C182.938 119.77 183.098 120.948 183.418 121.908C183.767 122.868 184.247 123.654 184.858 124.265C185.469 124.875 186.182 125.312 186.997 125.574C187.84 125.836 188.771 125.966 189.79 125.966C192.379 125.966 194.416 125.443 195.899 124.395C197.412 123.348 198.474 121.923 199.085 120.119C199.725 118.286 200.045 116.249 200.045 114.009ZM233.386 96.8585V153.154H220.818V87.7814H232.47L233.386 96.8585ZM263.28 110.867V111.783C263.28 115.216 262.872 118.402 262.058 121.341C261.272 124.279 260.109 126.839 258.567 129.021C257.025 131.174 255.104 132.862 252.806 134.084C250.537 135.276 247.918 135.873 244.951 135.873C242.071 135.873 239.569 135.291 237.445 134.127C235.321 132.963 233.532 131.334 232.077 129.24C230.651 127.116 229.502 124.657 228.629 121.864C227.757 119.071 227.088 116.075 226.622 112.874V110.474C227.088 107.041 227.757 103.899 228.629 101.048C229.502 98.1677 230.651 95.6802 232.077 93.5855C233.532 91.4617 235.306 89.8179 237.401 88.6542C239.525 87.4904 242.012 86.9086 244.864 86.9086C247.86 86.9086 250.493 87.4759 252.762 88.6105C255.061 89.7452 256.981 91.3744 258.523 93.4982C260.094 95.622 261.272 98.1532 262.058 101.092C262.872 104.03 263.28 107.289 263.28 110.867ZM250.668 111.783V110.867C250.668 108.86 250.493 107.012 250.144 105.325C249.824 103.608 249.3 102.11 248.573 100.83C247.875 99.5497 246.944 98.5605 245.78 97.8622C244.645 97.1349 243.263 96.7712 241.634 96.7712C239.918 96.7712 238.448 97.0476 237.227 97.6004C236.034 98.1532 235.059 98.9532 234.303 100.001C233.546 101.048 232.979 102.299 232.601 103.754C232.222 105.208 231.99 106.852 231.902 108.685V114.751C232.048 116.904 232.455 118.839 233.124 120.555C233.794 122.243 234.826 123.581 236.223 124.57C237.619 125.559 239.452 126.054 241.721 126.054C243.38 126.054 244.776 125.69 245.911 124.963C247.046 124.206 247.962 123.174 248.66 121.864C249.388 120.555 249.897 119.042 250.188 117.326C250.508 115.609 250.668 113.762 250.668 111.783ZM308.709 113.922H321.758C321.496 118.199 320.317 121.995 318.223 125.312C316.157 128.629 313.262 131.218 309.538 133.08C305.843 134.942 301.392 135.873 296.184 135.873C292.111 135.873 288.46 135.175 285.231 133.778C282.001 132.352 279.237 130.316 276.939 127.668C274.67 125.021 272.939 121.821 271.746 118.068C270.553 114.315 269.957 110.111 269.957 105.456V101.048C269.957 96.393 270.568 92.189 271.79 88.436C273.041 84.6538 274.815 81.439 277.114 78.7915C279.441 76.144 282.22 74.1075 285.449 72.6819C288.678 71.2563 292.286 70.5435 296.272 70.5435C301.567 70.5435 306.033 71.5036 309.669 73.4238C313.335 75.3439 316.172 77.9914 318.179 81.3663C320.216 84.7411 321.437 88.5814 321.845 92.8873H308.753C308.607 90.327 308.098 88.1596 307.225 86.3849C306.353 84.5811 305.029 83.2283 303.254 82.3264C301.508 81.3954 299.181 80.9299 296.272 80.9299C294.09 80.9299 292.184 81.3372 290.555 82.1518C288.926 82.9664 287.558 84.2029 286.453 85.8612C285.347 87.5195 284.518 89.6143 283.965 92.1454C283.441 94.6474 283.18 97.5859 283.18 100.961V105.456C283.18 108.743 283.427 111.638 283.922 114.14C284.416 116.613 285.173 118.708 286.191 120.424C287.238 122.112 288.576 123.392 290.206 124.265C291.864 125.108 293.857 125.53 296.184 125.53C298.919 125.53 301.174 125.094 302.949 124.221C304.723 123.348 306.076 122.053 307.007 120.337C307.967 118.62 308.535 116.482 308.709 113.922ZM355.055 124.352V103.317C355.055 101.804 354.808 100.51 354.313 99.4333C353.818 98.3277 353.047 97.4695 352 96.8585C350.982 96.2476 349.658 95.9421 348.029 95.9421C346.632 95.9421 345.425 96.1894 344.407 96.684C343.388 97.1495 342.603 97.8332 342.05 98.735C341.497 99.6078 341.221 100.641 341.221 101.833H328.653C328.653 99.826 329.118 97.9204 330.049 96.1166C330.98 94.3128 332.333 92.7273 334.108 91.3599C335.882 89.9634 337.992 88.8724 340.435 88.0869C342.908 87.3013 345.672 86.9086 348.727 86.9086C352.393 86.9086 355.651 87.5195 358.503 88.7415C361.354 89.9634 363.594 91.7963 365.223 94.2401C366.881 96.684 367.711 99.7388 367.711 103.405V123.61C367.711 126.199 367.871 128.323 368.191 129.981C368.511 131.611 368.976 133.036 369.587 134.258V135H356.888C356.277 133.72 355.811 132.12 355.491 130.2C355.2 128.25 355.055 126.301 355.055 124.352ZM356.713 106.241L356.801 113.354H349.774C348.116 113.354 346.676 113.544 345.454 113.922C344.232 114.3 343.228 114.838 342.443 115.536C341.657 116.206 341.076 116.991 340.697 117.893C340.348 118.795 340.174 119.784 340.174 120.861C340.174 121.937 340.421 122.912 340.916 123.784C341.41 124.628 342.123 125.297 343.054 125.792C343.985 126.257 345.076 126.49 346.327 126.49C348.218 126.49 349.862 126.112 351.258 125.356C352.655 124.599 353.731 123.668 354.488 122.563C355.273 121.457 355.68 120.41 355.71 119.42L359.026 124.745C358.561 125.937 357.921 127.174 357.106 128.454C356.32 129.734 355.317 130.941 354.095 132.076C352.873 133.182 351.404 134.098 349.687 134.825C347.971 135.524 345.934 135.873 343.578 135.873C340.581 135.873 337.861 135.276 335.417 134.084C333.002 132.862 331.082 131.189 329.656 129.065C328.26 126.912 327.562 124.468 327.562 121.733C327.562 119.26 328.027 117.064 328.958 115.144C329.889 113.224 331.257 111.609 333.06 110.3C334.893 108.961 337.177 107.958 339.912 107.289C342.647 106.59 345.818 106.241 349.425 106.241H356.713ZM389.967 67.9251V135H377.399V67.9251H389.967ZM419.73 87.7814L399.219 111.172L388.221 122.301L383.639 113.224L392.367 102.139L404.63 87.7814H419.73ZM406.681 135L392.716 113.18L401.401 105.587L421.17 135H406.681ZM446.001 135.873C442.335 135.873 439.048 135.291 436.138 134.127C433.229 132.934 430.756 131.291 428.719 129.196C426.712 127.101 425.17 124.672 424.094 121.908C423.017 119.115 422.479 116.147 422.479 113.005V111.26C422.479 107.681 422.988 104.408 424.006 101.441C425.025 98.4732 426.479 95.8984 428.37 93.7164C430.291 91.5344 432.618 89.8616 435.353 88.6978C438.088 87.505 441.171 86.9086 444.604 86.9086C447.95 86.9086 450.918 87.4613 453.507 88.5669C456.096 89.6724 458.264 91.2435 460.009 93.28C461.784 95.3166 463.122 97.7604 464.024 100.612C464.926 103.434 465.377 106.576 465.377 110.038V115.275H427.847V106.896H453.027V105.936C453.027 104.19 452.707 102.634 452.067 101.266C451.456 99.8697 450.525 98.7641 449.274 97.9495C448.023 97.1349 446.423 96.7276 444.474 96.7276C442.815 96.7276 441.39 97.0913 440.197 97.8186C439.004 98.5459 438.029 99.5642 437.273 100.873C436.546 102.183 435.993 103.725 435.615 105.499C435.266 107.245 435.091 109.165 435.091 111.26V113.005C435.091 114.896 435.353 116.642 435.876 118.242C436.429 119.842 437.2 121.224 438.189 122.388C439.208 123.552 440.43 124.454 441.855 125.094C443.31 125.734 444.954 126.054 446.786 126.054C449.056 126.054 451.165 125.617 453.114 124.745C455.093 123.843 456.795 122.49 458.22 120.686L464.33 127.319C463.341 128.745 461.988 130.112 460.271 131.422C458.584 132.731 456.547 133.807 454.162 134.651C451.776 135.465 449.056 135.873 446.001 135.873Z" fill="#FCB5FE"/>
<g filter="url(#filter0_d_1703_13)">
<path d="M21.7289 45.5568V83H9.11694V35.7814H20.9434L21.7289 45.5568ZM19.9833 57.7324H16.4921C16.4921 54.4448 16.8849 51.4191 17.6704 48.6552C18.485 45.8622 19.6633 43.4475 21.2053 41.4109C22.7763 39.3453 24.711 37.7452 27.0094 36.6105C29.3078 35.4759 31.9698 34.9086 34.9955 34.9086C37.0903 34.9086 39.0104 35.2286 40.756 35.8687C42.5016 36.4796 44 37.4542 45.251 38.7925C46.5311 40.1017 47.5203 41.8183 48.2185 43.9421C48.9167 46.0368 49.2659 48.5534 49.2659 51.4918V83H36.6975V52.8883C36.6975 50.7354 36.4066 49.0771 35.8247 47.9133C35.2428 46.7496 34.4137 45.935 33.3372 45.4695C32.2899 45.004 31.0243 44.7712 29.5405 44.7712C27.9113 44.7712 26.4857 45.1058 25.2638 45.775C24.071 46.4441 23.0818 47.3751 22.2963 48.5679C21.5107 49.7317 20.9289 51.0991 20.5507 52.6701C20.1724 54.2411 19.9833 55.9286 19.9833 57.7324ZM48.0876 56.2922L43.5927 56.8596C43.5927 53.7757 43.9709 50.91 44.7273 48.2625C45.5128 45.6149 46.662 43.2875 48.1749 41.28C49.7168 39.2726 51.6224 37.7161 53.8917 36.6105C56.161 35.4759 58.7794 34.9086 61.7469 34.9086C64.0162 34.9086 66.0819 35.2431 67.9438 35.9123C69.8058 36.5523 71.3914 37.5852 72.7006 39.0107C74.0389 40.4072 75.0572 42.2401 75.7554 44.5094C76.4828 46.7787 76.8464 49.5571 76.8464 52.8447V83H64.2344V52.8447C64.2344 50.6627 63.9435 49.0043 63.3616 47.8697C62.8089 46.706 61.9942 45.9059 60.9178 45.4695C59.8704 45.004 58.6194 44.7712 57.1647 44.7712C55.6519 44.7712 54.3281 45.0767 53.1935 45.6877C52.0588 46.2696 51.1133 47.0842 50.3569 48.1315C49.6004 49.1789 49.0331 50.4008 48.6549 51.7973C48.2767 53.1647 48.0876 54.663 48.0876 56.2922ZM100.587 77.6759L113.111 35.7814H126.596L107.613 90.1133C107.205 91.3062 106.653 92.5863 105.954 93.9537C105.285 95.3211 104.369 96.6157 103.205 97.8376C102.07 99.0887 100.63 100.107 98.8847 100.892C97.1682 101.678 95.0589 102.071 92.5569 102.071C91.3641 102.071 90.3894 101.998 89.633 101.853C88.8766 101.707 87.9747 101.503 86.9273 101.242V92.0335C87.2473 92.0335 87.5819 92.0335 87.931 92.0335C88.2802 92.0626 88.6147 92.0771 88.9348 92.0771C90.5931 92.0771 91.9459 91.888 92.9933 91.5098C94.0406 91.1316 94.8844 90.5497 95.5244 89.7642C96.1645 89.0078 96.6736 88.0186 97.0518 86.7967L100.587 77.6759ZM95.3499 35.7814L105.605 69.9952L107.395 83.3055L98.8411 84.2219L81.8651 35.7814H95.3499Z" fill="#3FF3FF"/>
</g>
<defs>
<filter id="filter0_d_1703_13" x="0.116943" y="24.9086" width="133.479" height="83.1622" filterUnits="userSpaceOnUse" color-interpolation-filters="sRGB">
<feFlood flood-opacity="0" result="BackgroundImageFix"/>
<feColorMatrix in="SourceAlpha" type="matrix" values="0 0 0 0 0 0 0 0 0 0 0 0 0 0 0 0 0 0 127 0" result="hardAlpha"/>
<feOffset dx="-1" dy="-2"/>
<feGaussianBlur stdDeviation="4"/>
<feComposite in2="hardAlpha" operator="out"/>
<feColorMatrix type="matrix" values="0 0 0 0 0 0 0 0 0 0 0 0 0 0 0 0 0 0 0.5 0"/>
<feBlend mode="normal" in2="BackgroundImageFix" result="effect1_dropShadow_1703_13"/>
<feBlend mode="normal" in="SourceGraphic" in2="effect1_dropShadow_1703_13" result="shape"/>
</filter>
</defs>
</svg>
