<svg width="257" height="84" viewBox="0 0 257 84" fill="none" xmlns="http://www.w3.org/2000/svg">
<path d="M86.0781 60.6797H93.0859C92.9453 62.9766 92.3125 65.0156 91.1875 66.7969C90.0781 68.5781 88.5234 69.9688 86.5234 70.9688C84.5391 71.9688 82.1484 72.4688 79.3516 72.4688C77.1641 72.4688 75.2031 72.0938 73.4688 71.3438C71.7344 70.5781 70.25 69.4844 69.0156 68.0625C67.7969 66.6406 66.8672 64.9219 66.2266 62.9062C65.5859 60.8906 65.2656 58.6328 65.2656 56.1328V53.7656C65.2656 51.2656 65.5938 49.0078 66.25 46.9922C66.9219 44.9609 67.875 43.2344 69.1094 41.8125C70.3594 40.3906 71.8516 39.2969 73.5859 38.5312C75.3203 37.7656 77.2578 37.3828 79.3984 37.3828C82.2422 37.3828 84.6406 37.8984 86.5938 38.9297C88.5625 39.9609 90.0859 41.3828 91.1641 43.1953C92.2578 45.0078 92.9141 47.0703 93.1328 49.3828H86.1016C86.0234 48.0078 85.75 46.8438 85.2812 45.8906C84.8125 44.9219 84.1016 44.1953 83.1484 43.7109C82.2109 43.2109 80.9609 42.9609 79.3984 42.9609C78.2266 42.9609 77.2031 43.1797 76.3281 43.6172C75.4531 44.0547 74.7188 44.7188 74.125 45.6094C73.5312 46.5 73.0859 47.625 72.7891 48.9844C72.5078 50.3281 72.3672 51.9062 72.3672 53.7188V56.1328C72.3672 57.8984 72.5 59.4531 72.7656 60.7969C73.0312 62.125 73.4375 63.25 73.9844 64.1719C74.5469 65.0781 75.2656 65.7656 76.1406 66.2344C77.0312 66.6875 78.1016 66.9141 79.3516 66.9141C80.8203 66.9141 82.0312 66.6797 82.9844 66.2109C83.9375 65.7422 84.6641 65.0469 85.1641 64.125C85.6797 63.2031 85.9844 62.0547 86.0781 60.6797ZM112.281 65.9297V46.6406H119.031V72H112.68L112.281 65.9297ZM113.031 60.7266L115.023 60.6797C115.023 62.3672 114.828 63.9375 114.438 65.3906C114.047 66.8281 113.461 68.0781 112.68 69.1406C111.898 70.1875 110.914 71.0078 109.727 71.6016C108.539 72.1797 107.141 72.4688 105.531 72.4688C104.297 72.4688 103.156 72.2969 102.109 71.9531C101.078 71.5938 100.188 71.0391 99.4375 70.2891C98.7031 69.5234 98.125 68.5469 97.7031 67.3594C97.2969 66.1562 97.0938 64.7109 97.0938 63.0234V46.6406H103.844V63.0703C103.844 63.8203 103.93 64.4531 104.102 64.9688C104.289 65.4844 104.547 65.9062 104.875 66.2344C105.203 66.5625 105.586 66.7969 106.023 66.9375C106.477 67.0781 106.977 67.1484 107.523 67.1484C108.914 67.1484 110.008 66.8672 110.805 66.3047C111.617 65.7422 112.188 64.9766 112.516 64.0078C112.859 63.0234 113.031 61.9297 113.031 60.7266ZM130.938 51.5156V81.75H124.188V46.6406H130.445L130.938 51.5156ZM146.992 59.0391V59.5312C146.992 61.375 146.773 63.0859 146.336 64.6641C145.914 66.2422 145.289 67.6172 144.461 68.7891C143.633 69.9453 142.602 70.8516 141.367 71.5078C140.148 72.1484 138.742 72.4688 137.148 72.4688C135.602 72.4688 134.258 72.1562 133.117 71.5312C131.977 70.9062 131.016 70.0312 130.234 68.9062C129.469 67.7656 128.852 66.4453 128.383 64.9453C127.914 63.4453 127.555 61.8359 127.305 60.1172V58.8281C127.555 56.9844 127.914 55.2969 128.383 53.7656C128.852 52.2188 129.469 50.8828 130.234 49.7578C131.016 48.6172 131.969 47.7344 133.094 47.1094C134.234 46.4844 135.57 46.1719 137.102 46.1719C138.711 46.1719 140.125 46.4766 141.344 47.0859C142.578 47.6953 143.609 48.5703 144.438 49.7109C145.281 50.8516 145.914 52.2109 146.336 53.7891C146.773 55.3672 146.992 57.1172 146.992 59.0391ZM140.219 59.5312V59.0391C140.219 57.9609 140.125 56.9688 139.938 56.0625C139.766 55.1406 139.484 54.3359 139.094 53.6484C138.719 52.9609 138.219 52.4297 137.594 52.0547C136.984 51.6641 136.242 51.4688 135.367 51.4688C134.445 51.4688 133.656 51.6172 133 51.9141C132.359 52.2109 131.836 52.6406 131.43 53.2031C131.023 53.7656 130.719 54.4375 130.516 55.2188C130.312 56 130.188 56.8828 130.141 57.8672V61.125C130.219 62.2812 130.438 63.3203 130.797 64.2422C131.156 65.1484 131.711 65.8672 132.461 66.3984C133.211 66.9297 134.195 67.1953 135.414 67.1953C136.305 67.1953 137.055 67 137.664 66.6094C138.273 66.2031 138.766 65.6484 139.141 64.9453C139.531 64.2422 139.805 63.4297 139.961 62.5078C140.133 61.5859 140.219 60.5938 140.219 59.5312ZM171.391 60.6797H178.398C178.258 62.9766 177.625 65.0156 176.5 66.7969C175.391 68.5781 173.836 69.9688 171.836 70.9688C169.852 71.9688 167.461 72.4688 164.664 72.4688C162.477 72.4688 160.516 72.0938 158.781 71.3438C157.047 70.5781 155.562 69.4844 154.328 68.0625C153.109 66.6406 152.18 64.9219 151.539 62.9062C150.898 60.8906 150.578 58.6328 150.578 56.1328V53.7656C150.578 51.2656 150.906 49.0078 151.562 46.9922C152.234 44.9609 153.188 43.2344 154.422 41.8125C155.672 40.3906 157.164 39.2969 158.898 38.5312C160.633 37.7656 162.57 37.3828 164.711 37.3828C167.555 37.3828 169.953 37.8984 171.906 38.9297C173.875 39.9609 175.398 41.3828 176.477 43.1953C177.57 45.0078 178.227 47.0703 178.445 49.3828H171.414C171.336 48.0078 171.062 46.8438 170.594 45.8906C170.125 44.9219 169.414 44.1953 168.461 43.7109C167.523 43.2109 166.273 42.9609 164.711 42.9609C163.539 42.9609 162.516 43.1797 161.641 43.6172C160.766 44.0547 160.031 44.7188 159.438 45.6094C158.844 46.5 158.398 47.625 158.102 48.9844C157.82 50.3281 157.68 51.9062 157.68 53.7188V56.1328C157.68 57.8984 157.812 59.4531 158.078 60.7969C158.344 62.125 158.75 63.25 159.297 64.1719C159.859 65.0781 160.578 65.7656 161.453 66.2344C162.344 66.6875 163.414 66.9141 164.664 66.9141C166.133 66.9141 167.344 66.6797 168.297 66.2109C169.25 65.7422 169.977 65.0469 170.477 64.125C170.992 63.2031 171.297 62.0547 171.391 60.6797ZM196.281 66.2812V54.9844C196.281 54.1719 196.148 53.4766 195.883 52.8984C195.617 52.3047 195.203 51.8438 194.641 51.5156C194.094 51.1875 193.383 51.0234 192.508 51.0234C191.758 51.0234 191.109 51.1562 190.562 51.4219C190.016 51.6719 189.594 52.0391 189.297 52.5234C189 52.9922 188.852 53.5469 188.852 54.1875H182.102C182.102 53.1094 182.352 52.0859 182.852 51.1172C183.352 50.1484 184.078 49.2969 185.031 48.5625C185.984 47.8125 187.117 47.2266 188.43 46.8047C189.758 46.3828 191.242 46.1719 192.883 46.1719C194.852 46.1719 196.602 46.5 198.133 47.1562C199.664 47.8125 200.867 48.7969 201.742 50.1094C202.633 51.4219 203.078 53.0625 203.078 55.0312V65.8828C203.078 67.2734 203.164 68.4141 203.336 69.3047C203.508 70.1797 203.758 70.9453 204.086 71.6016V72H197.266C196.938 71.3125 196.688 70.4531 196.516 69.4219C196.359 68.375 196.281 67.3281 196.281 66.2812ZM197.172 56.5547L197.219 60.375H193.445C192.555 60.375 191.781 60.4766 191.125 60.6797C190.469 60.8828 189.93 61.1719 189.508 61.5469C189.086 61.9062 188.773 62.3281 188.57 62.8125C188.383 63.2969 188.289 63.8281 188.289 64.4062C188.289 64.9844 188.422 65.5078 188.688 65.9766C188.953 66.4297 189.336 66.7891 189.836 67.0547C190.336 67.3047 190.922 67.4297 191.594 67.4297C192.609 67.4297 193.492 67.2266 194.242 66.8203C194.992 66.4141 195.57 65.9141 195.977 65.3203C196.398 64.7266 196.617 64.1641 196.633 63.6328L198.414 66.4922C198.164 67.1328 197.82 67.7969 197.383 68.4844C196.961 69.1719 196.422 69.8203 195.766 70.4297C195.109 71.0234 194.32 71.5156 193.398 71.9062C192.477 72.2812 191.383 72.4688 190.117 72.4688C188.508 72.4688 187.047 72.1484 185.734 71.5078C184.438 70.8516 183.406 69.9531 182.641 68.8125C181.891 67.6562 181.516 66.3438 181.516 64.875C181.516 63.5469 181.766 62.3672 182.266 61.3359C182.766 60.3047 183.5 59.4375 184.469 58.7344C185.453 58.0156 186.68 57.4766 188.148 57.1172C189.617 56.7422 191.32 56.5547 193.258 56.5547H197.172ZM215.031 35.9766V72H208.281V35.9766H215.031ZM231.016 46.6406L220 59.2031L214.094 65.1797L211.633 60.3047L216.32 54.3516L222.906 46.6406H231.016ZM224.008 72L216.508 60.2812L221.172 56.2031L231.789 72H224.008ZM245.125 72.4688C243.156 72.4688 241.391 72.1562 239.828 71.5312C238.266 70.8906 236.938 70.0078 235.844 68.8828C234.766 67.7578 233.938 66.4531 233.359 64.9688C232.781 63.4688 232.492 61.875 232.492 60.1875V59.25C232.492 57.3281 232.766 55.5703 233.312 53.9766C233.859 52.3828 234.641 51 235.656 49.8281C236.688 48.6562 237.938 47.7578 239.406 47.1328C240.875 46.4922 242.531 46.1719 244.375 46.1719C246.172 46.1719 247.766 46.4688 249.156 47.0625C250.547 47.6562 251.711 48.5 252.648 49.5938C253.602 50.6875 254.32 52 254.805 53.5312C255.289 55.0469 255.531 56.7344 255.531 58.5938V61.4062H235.375V56.9062H248.898V56.3906C248.898 55.4531 248.727 54.6172 248.383 53.8828C248.055 53.1328 247.555 52.5391 246.883 52.1016C246.211 51.6641 245.352 51.4453 244.305 51.4453C243.414 51.4453 242.648 51.6406 242.008 52.0312C241.367 52.4219 240.844 52.9688 240.438 53.6719C240.047 54.375 239.75 55.2031 239.547 56.1562C239.359 57.0938 239.266 58.125 239.266 59.25V60.1875C239.266 61.2031 239.406 62.1406 239.688 63C239.984 63.8594 240.398 64.6016 240.93 65.2266C241.477 65.8516 242.133 66.3359 242.898 66.6797C243.68 67.0234 244.562 67.1953 245.547 67.1953C246.766 67.1953 247.898 66.9609 248.945 66.4922C250.008 66.0078 250.922 65.2812 251.688 64.3125L254.969 67.875C254.438 68.6406 253.711 69.375 252.789 70.0781C251.883 70.7812 250.789 71.3594 249.508 71.8125C248.227 72.25 246.766 72.4688 245.125 72.4688Z" fill="#FCB5FE"/>
<g filter="url(#filter0_d_1706_2)">
<path d="M16.4922 23.8906V44H9.71875V18.6406H16.0703L16.4922 23.8906ZM15.5547 30.4297H13.6797C13.6797 28.6641 13.8906 27.0391 14.3125 25.5547C14.75 24.0547 15.3828 22.7578 16.2109 21.6641C17.0547 20.5547 18.0938 19.6953 19.3281 19.0859C20.5625 18.4766 21.9922 18.1719 23.6172 18.1719C24.7422 18.1719 25.7734 18.3438 26.7109 18.6875C27.6484 19.0156 28.4531 19.5391 29.125 20.2578C29.8125 20.9609 30.3438 21.8828 30.7188 23.0234C31.0938 24.1484 31.2812 25.5 31.2812 27.0781V44H24.5312V27.8281C24.5312 26.6719 24.375 25.7812 24.0625 25.1562C23.75 24.5312 23.3047 24.0938 22.7266 23.8438C22.1641 23.5938 21.4844 23.4688 20.6875 23.4688C19.8125 23.4688 19.0469 23.6484 18.3906 24.0078C17.75 24.3672 17.2188 24.8672 16.7969 25.5078C16.375 26.1328 16.0625 26.8672 15.8594 27.7109C15.6562 28.5547 15.5547 29.4609 15.5547 30.4297ZM30.6484 29.6562L28.2344 29.9609C28.2344 28.3047 28.4375 26.7656 28.8438 25.3438C29.2656 23.9219 29.8828 22.6719 30.6953 21.5938C31.5234 20.5156 32.5469 19.6797 33.7656 19.0859C34.9844 18.4766 36.3906 18.1719 37.9844 18.1719C39.2031 18.1719 40.3125 18.3516 41.3125 18.7109C42.3125 19.0547 43.1641 19.6094 43.8672 20.375C44.5859 21.125 45.1328 22.1094 45.5078 23.3281C45.8984 24.5469 46.0938 26.0391 46.0938 27.8047V44H39.3203V27.8047C39.3203 26.6328 39.1641 25.7422 38.8516 25.1328C38.5547 24.5078 38.1172 24.0781 37.5391 23.8438C36.9766 23.5938 36.3047 23.4688 35.5234 23.4688C34.7109 23.4688 34 23.6328 33.3906 23.9609C32.7812 24.2734 32.2734 24.7109 31.8672 25.2734C31.4609 25.8359 31.1562 26.4922 30.9531 27.2422C30.75 27.9766 30.6484 28.7812 30.6484 29.6562ZM58.8438 41.1406L65.5703 18.6406H72.8125L62.6172 47.8203C62.3984 48.4609 62.1016 49.1484 61.7266 49.8828C61.3672 50.6172 60.875 51.3125 60.25 51.9688C59.6406 52.6406 58.8672 53.1875 57.9297 53.6094C57.0078 54.0312 55.875 54.2422 54.5312 54.2422C53.8906 54.2422 53.3672 54.2031 52.9609 54.125C52.5547 54.0469 52.0703 53.9375 51.5078 53.7969V48.8516C51.6797 48.8516 51.8594 48.8516 52.0469 48.8516C52.2344 48.8672 52.4141 48.875 52.5859 48.875C53.4766 48.875 54.2031 48.7734 54.7656 48.5703C55.3281 48.3672 55.7812 48.0547 56.125 47.6328C56.4688 47.2266 56.7422 46.6953 56.9453 46.0391L58.8438 41.1406ZM56.0312 18.6406L61.5391 37.0156L62.5 44.1641L57.9062 44.6562L48.7891 18.6406H56.0312Z" fill="#3FF3FF"/>
</g>
<defs>
<filter id="filter0_d_1706_2" x="0.71875" y="8.17188" width="79.0938" height="52.0703" filterUnits="userSpaceOnUse" color-interpolation-filters="sRGB">
<feFlood flood-opacity="0" result="BackgroundImageFix"/>
<feColorMatrix in="SourceAlpha" type="matrix" values="0 0 0 0 0 0 0 0 0 0 0 0 0 0 0 0 0 0 127 0" result="hardAlpha"/>
<feOffset dx="-1" dy="-2"/>
<feGaussianBlur stdDeviation="4"/>
<feComposite in2="hardAlpha" operator="out"/>
<feColorMatrix type="matrix" values="0 0 0 0 0 0 0 0 0 0 0 0 0 0 0 0 0 0 0.5 0"/>
<feBlend mode="normal" in2="BackgroundImageFix" result="effect1_dropShadow_1706_2"/>
<feBlend mode="normal" in="SourceGraphic" in2="effect1_dropShadow_1706_2" result="shape"/>
</filter>
</defs>
</svg>
